<svg xmlns="http://www.w3.org/2000/svg" viewBox="0 0 843.47402 216.63448">
  <g id="Layer_2" data-name="Layer 2">
    <g id="Layer_1-2" data-name="Layer 1">
      <g>
        <g>
          <path d="M778.05467,183.69667a32.48068,32.48068,0,1,1,32.46176-32.95756v.89658a32.51584,32.51584,0,0,1-32.46176,32.061m32.46176-97.9394v8.67638a65.423,65.423,0,1,0,0,113.50688v8.69166H843.474V85.75727Z" style="fill: #091e42"/>
          <path d="M559.94692,183.69667a32.48068,32.48068,0,1,1,32.46393-32.95756v.89658a32.51884,32.51884,0,0,1-32.46393,32.061m32.46393-89.263a65.423,65.423,0,1,0,0,113.50688v8.69166h32.9576V85.75727h-32.9576Z" style="fill: #091e42"/>
          <path d="M416.68964,183.69667a32.48068,32.48068,0,1,1,32.46228-32.95362v.88586a32.51687,32.51687,0,0,1-32.46228,32.06776m32.46228-89.263a65.423,65.423,0,1,0,0,113.50688v8.69166h32.95763V39.29749H449.15192Z" style="fill: #091e42"/>
          <path d="M674.80889,94.44441V85.75727H641.89543v64.70237c0,.2262-.03342.4517-.03342.68239h.03342v65.468h.02207v.01135H674.831V151.142a32.43751,32.43751,0,0,1,32.45311-32.39371h.0595V85.77315h-.0595a65.06465,65.06465,0,0,0-32.47517,8.67126" style="fill: #091e42"/>
          <path d="M305.34154,85.77543H292.84416v32.95763h12.49738v97.90142h32.95762V85.75336H305.34154Z" style="fill: #091e42"/>
          <path d="M321.82148,39.29517A16.47882,16.47882,0,1,0,338.3014,55.77743a16.48117,16.48117,0,0,0-16.47992-16.48226" style="fill: #091e42"/>
        </g>
        <g>
          <path d="M101.78843,24.58526q-.19873.0289-.2457-.06143" style="fill: none;stroke: #c8838d;stroke-width: 0.722670882054317px"/>
          <path d="M101.54272,24.52383l-27.75779.18067a.99454.99454,0,0,0-.91057.52755L43.11477,76.36824" style="fill: none;stroke: #e4a23d;stroke-width: 0.722670882054317px"/>
          <path d="M144.00687,25.63313,80.4046,134.93349" style="fill: none;stroke: #c857ac;stroke-width: 0.722670882054317px"/>
          <path d="M80.4046,134.93349l-4.27821,7.299a.59932.59932,0,0,1-.55284.318l-23.429.08312" style="fill: none;stroke: #e060bb;stroke-width: 0.722670882054317px"/>
          <path d="M43.20511,76.45858,70.822,76.23093a1.019,1.019,0,0,0,.87443-.50586Q86.4931,50.25092,101.37651,24.719a.20668.20668,0,0,0,.16621-.19512" style="fill: none;stroke: #dc92af;stroke-width: 0.722670882054317px"/>
          <path d="M140.30318,43.52285q-.24932-.047-.34327.09395-20.32512,31.30248-40.55269,62.66279-1.82113,2.81841-3.94217,6.05237-7.98912,12.16979-14.13183,21.8066a7.99438,7.99438,0,0,1-.69737.95753.12083.12083,0,0,1-.21319-.01084.14028.14028,0,0,1-.01807-.15176" style="fill: none;stroke: #e74368;stroke-width: 0.722670882054317px"/>
          <path d="M125.78471,176.95681a.98843.98843,0,0,0-.26378.35771,60.3242,60.3242,0,0,1-11.63861,17.99813A124.595,124.595,0,0,1,92.7189,213.75521q-.03252.02169-.26016.159-.5384.33245-.02168.58175" style="fill: none;stroke: #e74368;stroke-width: 0.722670882054317px"/>
          <path d="M92.43707,214.49594l-4.00721,1.70911" style="fill: none;stroke: #af81ad;stroke-width: 0.722670882054317px"/>
          <path d="M127.44686,188.34248c-9.86446,10.68107-21.66929,20.36486-35.00979,26.15344" style="fill: none;stroke: #97789e;stroke-width: 0.722670882054317px"/>
          <path d="M141.99061,215.56912a27.34216,27.34216,0,0,1-8.78407-9.77412,56.03387,56.03387,0,0,1-5.49952-16.943.701.701,0,0,0-.12285-.30712l-.13731-.20235" style="fill: none;stroke: #30acda;stroke-width: 0.722670882054317px"/>
          <path d="M127.44686,188.34248a.94243.94243,0,0,1,.27462-.35772" style="fill: none;stroke: #686e94;stroke-width: 0.722670882054317px"/>
        </g>
        <path d="M101.78843,24.58526q-.19873.0289-.2457-.06143l-27.75779.18067a.99455.99455,0,0,0-.91057.52755L43.11478,76.36824.217,76.63924a.2168.2168,0,0,1-.1084-.40469c.6215-.35772.542-.71906.80939-1.18518Q22.5548,37.90409,44.16266.73351a.302.302,0,0,1,.27461-.15537q3.028.03252,6.08128.00361a.53334.53334,0,0,0,.2457-.065A.66466.66466,0,0,1,51.09307.43Q75.15079.30714,99.20849.24209A.56361.56361,0,0,0,99.49034.1626a.66441.66441,0,0,1,.336-.09756L115.47581,0a.114.114,0,0,1,.11057.11293A.10536.10536,0,0,1,115.53.206a.45969.45969,0,0,0-.16983.18067q-6.75334,11.5808-13.50672,23.1616A1.20482,1.20482,0,0,0,101.78843,24.58526Z" style="fill: #f3af3d"/>
        <path d="M144.00687,25.63313,80.4046,134.93349l-4.27821,7.299a.59932.59932,0,0,1-.55284.318l-23.429.08312-47.49393.32159q-.14816.00361-.07588-.12647L43.20512,76.45859,70.822,76.23094a1.019,1.019,0,0,0,.87443-.50586Q86.49311,50.25093,101.37651,24.719a.20668.20668,0,0,0,.16621-.19512q.047.09034.2457.06143,3.03885-.05419,6.01985-.03613a8.95215,8.95215,0,0,0,1.54652-.23126c1.02981-.21318,1.96928.22764,2.85455.22042q16.10111-.10479,32.20221-.17706.159,0,.14453.159A1.30643,1.30643,0,0,1,144.00687,25.63313Z" style="fill: #2050c4"/>
        <path d="M101.54272,24.52383a.20668.20668,0,0,1-.16621.19512q-14.88342,25.532-29.6801,51.00612a1.019,1.019,0,0,1-.87443.50586l-27.61687.22765q-.04335-.047-.09033-.09034L72.87437,25.23205a.99454.99454,0,0,1,.91056-.52755Z" style="fill: #5c6f86"/>
        <path d="M144.00687,25.63313a1.75442,1.75442,0,0,1,.03252,1.36946q-.34687,1.01175-.36134,1.06594-1.78139,7.7109-3.37487,15.45432-.24932-.047-.34327.09395-20.32512,31.30248-40.55269,62.66279-1.82113,2.81841-3.94217,6.05237-7.98912,12.16979-14.13183,21.8066a7.99438,7.99438,0,0,1-.69737.95753.12083.12083,0,0,1-.21319-.01084.14028.14028,0,0,1-.01807-.15176Z" style="fill: #489096"/>
        <path d="M140.30318,43.52285a776.79355,776.79355,0,0,0-12.99724,79.66,319.79286,319.79286,0,0,0-1.51761,53.20665,4.97757,4.97757,0,0,1-.00362.5673.98843.98843,0,0,0-.26378.35771,60.3242,60.3242,0,0,1-11.63861,17.99813A124.595,124.595,0,0,1,92.7189,213.75521q-.03252.02169-.26016.159-.5384.33245-.02168.58175l-4.00721,1.70911a34.39062,34.39062,0,0,1-31.81558-21.32962,42.08308,42.08308,0,0,1-2.06684-6.91235c-2.87624-13.05143-3.22673-26.21128-2.73893-39.671q.13369-3.635.336-5.65852l23.429-.08311a.59931.59931,0,0,0,.55284-.318l4.27821-7.299a.14028.14028,0,0,0,.01807.15176.12083.12083,0,0,0,.21319.01084,7.99369,7.99369,0,0,0,.69737-.95754Q87.47592,124.50171,95.465,112.332q2.121-3.234,3.94217-6.05237,20.22756-31.3603,40.55268-62.66279Q140.05386,43.47588,140.30318,43.52285Z" style="fill: #5eb182"/>
        <path d="M141.99061,215.56912a27.34216,27.34216,0,0,1-8.78407-9.77412,56.03387,56.03387,0,0,1-5.49952-16.943.701.701,0,0,0-.12285-.30712l-.13731-.20235a.94251.94251,0,0,1,.27462-.35772,1.30471,1.30471,0,0,0,.62149-.26377c13.39471-14.616,24.513-30.8183,34.30881-48.08652q9.75244-17.18512,17.87526-35.19769a.2704.2704,0,0,1,.10648-.12714.369.369,0,0,1,.16814-.03185,1.53284,1.53284,0,0,1,.20185.00183c.08889.0013.22948.0031.40161.004.42688.0023,1.78931.02186,3.99275-.14317,1.58684-.11885,2.38024-.17705,44.91761-.17705q.18426,0,.12286.17345a393.02032,393.02032,0,0,1-21.02611,49.026q-1.95123,3.8121-5.88614,10.71721a183.28636,183.28636,0,0,1-20.69008,29.373,75.06784,75.06784,0,0,1-14.38114,13.13453A54.66151,54.66151,0,0,1,141.99061,215.56912Z" style="fill: #2050c4"/>
        <path d="M125.78471,176.95681q.159.10477.18789.5131a88.63221,88.63221,0,0,0,1.29,9.98008q.10119.542.45889.53477a.9425.9425,0,0,0-.27461.35772c-9.86446,10.68107-21.66929,20.36486-35.00979,26.15344q-.51671-.2493.02167-.58175.22764-.13733.26016-.159a124.5945,124.5945,0,0,0,21.16342-18.44255,60.3239,60.3239,0,0,0,11.63861-17.99812A.98833.98833,0,0,1,125.78471,176.95681Z" style="fill: #489096"/>
        <path d="M127.44686,188.34248l.13731.20234a.70114.70114,0,0,1,.12285.30713,56.03381,56.03381,0,0,0,5.49952,16.943,27.34233,27.34233,0,0,0,8.78407,9.77412,17.49892,17.49892,0,0,1-2.85455.26739q-16.71177.10119-33.42353.12646a.45644.45644,0,0,0-.25294.07227.57143.57143,0,0,1-.318.094l-16.71177.07589,4.00721-1.70911C105.77757,208.70734,117.5824,199.02355,127.44686,188.34248Z" style="fill: #3470ad"/>
      </g>
    </g>
  </g>
</svg>
